<svg xmlns="http://www.w3.org/2000/svg" viewBox="0 0 640 512" fill="#522ED3">
  <path d="M280 32c0-8.8-7.2-16-16-16s-16 7.2-16 16V64c0 17.7 14.3 32 32 32h40c8.8 0 16-7.2 16-16s-7.2-16-16-16H280V32zM480 192c-53 0-96 43-96 96v42.5l-39.3-33.3c-5.3-4.5-12.3-6.4-19.2-5.2l-97.7 17.5C218.7 310.9 208 298.8 208 284c0-5.5 2.2-10.8 6.2-14.7l80-77.5c6.9-6.7 9.6-16.4 7.2-25.7C299 156.8 290.2 150 280 150H240 120c-22.1 0-40 17.9-40 40v45.7c-2.4 .8-4.8 1.6-7.2 2.6c-13.8 5.7-26.6 14.1-37.3 24.8C12.9 275.7 0 307.4 0 340.6C0 398.8 47.2 446 105.4 446c37.1 0 71.2-19.7 89.6-51.2c2.2-3.8 4.2-7.7 5.9-11.8l17.1 14.7c6.6 5.7 15.5 8.3 24.5 7.3l88-11c18.2-2.3 31.5-18 31.5-36.4V288c0-53-43-96-96-96h-37.8c10.4 1.4 20.7 3.5 30.9 6.3c6.7 1.8 13.8-.5 18.4-5.5l48-53.3c6-6.7 8.2-16 5.9-24.7S322.6 192 313.4 192H480zm-96 96c0-17.7 14.3-32 32-32s32 14.3 32 32v32c0 17.7-14.3 32-32 32s-32-14.3-32-32V288zm-200 0a24 24 0 1 1 48 0 24 24 0 1 1 -48 0zM99.8 382a24 24 0 1 1 0 48 24 24 0 1 1 0-48zm144-182c-8.8 0-16 7.2-16 16s7.2 16 16 16h48c8.8 0 16-7.2 16-16s-7.2-16-16-16H243.8zM588.8 265.8c-13.5-10.1-30.7-13.5-46.8-9.4l-67.9 17c.9-5 1.2-10.2 1-15.4c-1-20.2-10.9-38.6-26.7-49.8c-16-11.4-36.3-13.7-54.1-6.2L360 217.4v46.2c0 35.2 26.1 64.6 61.1 68.8c1.6 .2 3.2 .3 4.9 .3c-5.6 20.7-1.5 32.3 6.8 39.4c9.7 8.2 23.8 8.5 32.7 8h138c13.3 0 24-10.7 24-24s-10.7-24-24-24h-81l43.6-33.6c-7.2 4.4-15.5 7.3-24.4 8.5c-0.2 0-.3 0-.5 .1l-9.9 .7c4.3-3.8 13.9-12.2 19.9-17.4c9.1 5.7 20 7.2 30.3 4l57.9-17.9c8.2-2.5 12.7-11.1 10.1-19.3s-11.1-12.7-19.3-10.1l-57.9 17.9c-3.7 1.1-7.7 .5-10.9-1.8l16.3-14.2c14.3-12.5 35.5-12 49.2 1.2l36.2 34.9c6.3 6.1 16.4 5.9 22.5-.4s5.9-16.4-.4-22.5L588.8 265.8z"/>
</svg> 