<svg width="80" height="80" viewBox="0 0 80 80" fill="none" xmlns="http://www.w3.org/2000/svg">
  <path d="M53.3333 6.66667C57.0167 6.66667 60 9.65 60 13.3333C60 17.0167 57.0167 20 53.3333 20C49.65 20 46.6667 17.0167 46.6667 13.3333C46.6667 9.65 49.65 6.66667 53.3333 6.66667ZM26.6667 13.3333L35 21.6667L18.3333 38.3333L10 30L26.6667 13.3333ZM60 33.3333C60 45 50 50 40 50C33.3333 50 26.6667 46.6667 23.3333 43.3333L33.3333 33.3333C33.3333 33.3333 38.3333 38.3333 40.8333 36.6667C41.6667 36.1667 41.3333 35.1667 40.8333 34.5L33.95 24.85L36.5 21.6667L45.8333 33.3333C46.6667 34.5 47.5 35.8333 47.5 37.5C47.5 39.1667 46.6667 40.8333 45.8333 41.6667C42.5 44.1667 39.1667 41.6667 36.6667 38.3333L32.5 42.5C35 45 37.5 46.6667 40 46.6667C48.3333 46.6667 56.6667 41.6667 56.6667 33.3333H60Z" fill="#522ED3"/>
  <path d="M13.3333 70L20 66.6667C26.6667 63.3333 30 60 30 53.3333V40L25 35L16.6667 43.3333L16.6667 50V46.6667L10 53.3333C10 56.6667 10 63.3333 13.3333 70Z" fill="#522ED3"/>
  <path d="M70 56.6667V63.3333L63.3333 66.6667C56.6667 70 53.3333 73.3333 46.6667 73.3333H33.3333L28.3333 68.3333L36.6667 60H40H36.6667L43.3333 53.3333C46.6667 53.3333 53.3333 53.3333 60 56.6667L70 56.6667Z" fill="#522ED3"/>
</svg> 