<svg width="48" height="48" viewBox="0 0 48 48" fill="none" xmlns="http://www.w3.org/2000/svg">
  <rect width="48" height="48" rx="24" fill="#FFF3E0" />
  <path d="M36 14C38.2 14 40 15.8 40 18C40 20.2 38.2 22 36 22C33.8 22 32 20.2 32 18C32 15.8 33.8 14 36 14ZM18 18L24 24L12 36L6 30L18 18ZM42 30C42 38 36 42 28 42C24 42 20 40 17 37L24 30C24 30 27.4 33.4 29 32C29.6 31.6 29.4 30.8 29 30.4L24.4 24L26.4 22L32.6 30C33.4 31 34 32 34 33.6C34 35.2 33.4 36.8 32.4 37.6C30.4 39.4 28.2 37.6 26 35L23.4 37.6C25.2 39 26.6 40 28 40C33.6 40 39 36 39 30H42Z" fill="#FF9800"/>
</svg> 