<svg width="20" height="20" viewBox="0 0 20 20" fill="none" xmlns="http://www.w3.org/2000/svg">
  <path d="M15 4.167C15.9167 4.167 16.6667 4.917 16.6667 5.833C16.6667 6.75 15.9167 7.5 15 7.5C14.0833 7.5 13.3333 6.75 13.3333 5.833C13.3333 4.917 14.0833 4.167 15 4.167ZM7.5 5.833L10 8.333L5 13.333L2.5 10.833L7.5 5.833ZM17.5 10.833C17.5 14.167 14.8333 16.667 11.6667 16.667C9.91667 16.667 8.33333 15.917 7.16667 14.75L10 11.917C10 11.917 11.4167 13.333 12.0833 12.667C12.3333 12.417 12.25 12.083 12.0833 11.833L10.1667 9.167L11 8.333L13.5833 11.5C13.9167 11.917 14.1667 12.333 14.1667 12.917C14.1667 13.5 13.9167 14 13.5 14.25C12.6667 14.917 11.75 14.25 10.8333 13.333L9.75 14.417C10.5 15 11.0833 15.417 11.6667 15.417C14 15.417 16.25 13.5 16.25 10.833H17.5Z" fill="#505f79"/>
</svg> 