<svg width="20" height="20" viewBox="0 0 20 20" fill="none" xmlns="http://www.w3.org/2000/svg">
  <path d="M15.8333 2.5H15V1.66667C15 1.25 14.6667 0.916667 14.25 0.916667C13.8333 0.916667 13.5 1.25 13.5 1.66667V2.5H6.5V1.66667C6.5 1.25 6.16667 0.916667 5.75 0.916667C5.33333 0.916667 5 1.25 5 1.66667V2.5H4.16667C3.25 2.5 2.5 3.25 2.5 4.16667V15.8333C2.5 16.75 3.25 17.5 4.16667 17.5H15.8333C16.75 17.5 17.5 16.75 17.5 15.8333V4.16667C17.5 3.25 16.75 2.5 15.8333 2.5ZM15.8333 15.8333C15.8333 16 15.6667 16.1667 15.5 16.1667H4.5C4.33333 16.1667 4.16667 16 4.16667 15.8333V6.66667H15.8333V15.8333ZM5.75 8.33333H7.41667V10H5.75V8.33333ZM9.16667 8.33333H10.8333V10H9.16667V8.33333ZM12.5833 8.33333H14.25V10H12.5833V8.33333ZM5.75 11.6667H7.41667V13.3333H5.75V11.6667ZM9.16667 11.6667H10.8333V13.3333H9.16667V11.6667ZM12.5833 11.6667H14.25V13.3333H12.5833V11.6667Z" fill="#505f79"/>
</svg> 